<svg width="800" height="400" viewBox="0 0 800 400" fill="none" xmlns="http://www.w3.org/2000/svg">
  <style>
    @keyframes pulse {
      0%, 100% { opacity: 0.3; transform: scale(1); }
      50% { opacity: 1; transform: scale(1.05); }
    }
    @keyframes flow {
      0% { stroke-dashoffset: 20; }
      100% { stroke-dashoffset: 0; }
    }
    .node { filter: drop-shadow(0 0 8px rgba(99, 102, 241, 0.5)); }
    .node-rect { fill: #1E1E2E; stroke: #6366F1; stroke-width: 2; rx: 8; }
    .node-text { fill: #E0E0E0; font-family: 'Inter', sans-serif; font-size: 14px; font-weight: 600; text-anchor: middle; }
    .flow-line { stroke: #6366F1; stroke-width: 2; stroke-dasharray: 5, 5; animation: flow 1s linear infinite; }
    .arrow-head { fill: #6366F1; }
    .pulse-effect { animation: pulse 2s ease-in-out infinite; }
    .title-text { fill: #6366F1; font-family: 'Inter', sans-serif; font-size: 24px; font-weight: 900; letter-spacing: -1px; }
  </style>

  <!-- Background -->
  <rect width="800" height="400" fill="#0F172A" rx="12" />
  
  <text x="400" y="40" class="title-text" text-anchor="middle">V-SHIELD RAG ARCHITECTURE</text>

  <!-- Nodes -->
  <!-- User Input -->
  <g class="node" transform="translate(50, 175)">
    <rect class="node-rect" width="120" height="50" />
    <text x="60" y="30" class="node-text">User Voice/Text</text>
  </g>

  <!-- Groq STT -->
  <g class="node" transform="translate(220, 100)">
    <rect class="node-rect pulse-effect" width="140" height="50" style="stroke: #A855F7;" />
    <text x="70" y="30" class="node-text">Groq Whisper v3</text>
  </g>

  <!-- FAISS -->
  <g class="node" transform="translate(220, 250)">
    <rect class="node-rect" width="140" height="50" style="stroke: #10B981;" />
    <text x="70" y="30" class="node-text">FAISS Vector DB</text>
  </g>

  <!-- LLM -->
  <g class="node" transform="translate(440, 175)">
    <rect class="node-rect pulse-effect" width="160" height="50" style="stroke: #F43F5E;" />
    <text x="80" y="30" class="node-text">Groq Llama-3.3 70B</text>
  </g>

  <!-- Output -->
  <g class="node" transform="translate(650, 175)">
    <rect class="node-rect" width="120" height="50" style="stroke: #3B82F6;" />
    <text x="60" y="30" class="node-text">V-Shield UI</text>
  </g>

  <!-- Flow Lines -->
  <!-- User to STT -->
  <path d="M170 200 Q195 200 195 125 L220 125" class="flow-line" fill="none" />
  <!-- User to FAISS -->
  <path d="M170 200 Q195 200 195 275 L220 275" class="flow-line" fill="none" />
  
  <!-- STT to LLM -->
  <path d="M360 125 Q410 125 410 200 L440 200" class="flow-line" fill="none" />
  <!-- FAISS to LLM -->
  <path d="M360 275 Q410 275 410 200 L440 200" class="flow-line" fill="none" />

  <!-- LLM to UI -->
  <line x1="600" y1="200" x2="650" y2="200" class="flow-line" />

</svg>
